<?xml version="1.0" encoding="UTF-8"?>
<svg id="Capa_2" data-name="Capa 2" xmlns="http://www.w3.org/2000/svg" viewBox="0 0 258.77 64.4">
  <defs>
    <style>
      .cls-1 {
        fill: #121212;
      }
    </style>
  </defs>
  <g id="Logo_original" data-name="Logo original">
    <g id="Logo1">
      <path class="cls-1" d="M39.39,43.69v-22.98l19.31,11.49s-19.31,11.49-19.31,11.49ZM47.02,9.9c-12.36,0-22.3,10.04-22.3,22.3s9.94,22.3,22.3,22.3,22.3-9.95,22.3-22.3-9.95-22.3-22.3-22.3M73.48,9.41c-.97-1.06-2.51-1.16-3.57-.19l-.1.1c-.87.87-.87,2.32-.1,3.28,4.54,5.21,7.24,12.07,7.24,19.5s-2.7,14.29-7.24,19.5c-.87.97-.87,2.41.1,3.28l.1.1c.97.97,2.61.87,3.57-.19,5.31-6.08,8.5-14.1,8.5-22.79s-3.19-16.41-8.5-22.59M81.97.72c-.87-.97-2.51-.97-3.48,0l-.1.1c-.87.87-.87,2.32,0,3.28,6.66,7.43,10.72,17.28,10.72,28.1s-4.06,20.57-10.72,28.1c-.87.97-.87,2.41,0,3.28l.1.1c.97.97,2.51.97,3.48,0,7.53-8.3,12.07-19.31,12.07-31.48s-4.63-23.08-12.07-31.48M4.92,32.2c0-10.81,4.06-20.57,10.72-28.1.87-.97.87-2.41,0-3.28l-.1-.1c-.97-.97-2.51-.97-3.48,0C4.63,9.12,0,20.13,0,32.2s4.54,23.08,12.07,31.48c.87.97,2.51.97,3.48,0l.1-.1c.87-.87.87-2.32,0-3.28-6.66-7.53-10.72-17.28-10.72-28.1M16.99,32.2c0-7.43,2.7-14.29,7.24-19.5.87-.97.87-2.41-.1-3.28l-.1-.1c-.97-.97-2.61-.87-3.57.19-5.21,6.08-8.4,14-8.4,22.69s3.19,16.61,8.5,22.79c.97,1.06,2.51,1.16,3.57.19l.1-.1c.87-.87.87-2.32.1-3.28-4.63-5.31-7.34-12.17-7.34-19.6"/>
      <g>
        <path class="cls-1" d="M124.69,36.61h-10.76v10.46c0,.84-.42,1.25-1.25,1.25h-4.84c-.84,0-1.25-.42-1.25-1.25v-28.01c0-.84.42-1.25,1.25-1.25h17.34c.84,0,1.25.42,1.25,1.25v3.72c0,.84-.42,1.25-1.25,1.25h-11.24v6.48h10.76c.84,0,1.25.42,1.25,1.25v3.63c0,.81-.42,1.21-1.25,1.21"/>
        <path class="cls-1" d="M138.05,32.63h4.02c1.99,0,3.41-.34,4.26-1.02.85-.68,1.28-1.77,1.28-3.26,0-1.58-.42-2.69-1.25-3.33-.84-.63-2.25-.95-4.24-.95h-4.06v8.56ZM131.95,17.8h10.25c4.29,0,7.51.83,9.64,2.49,2.13,1.66,3.2,4.34,3.2,8.06,0,4.77-2.22,7.84-6.67,9.19l6.48,9.17c.29.38.35.75.19,1.1-.16.35-.47.52-.93.52h-5.03c-.75,0-1.35-.33-1.78-.99l-5.97-8.73h-3.29v8.47c0,.84-.42,1.25-1.25,1.25h-4.84c-.84,0-1.25-.42-1.25-1.25v-28.01c0-.84.42-1.25,1.25-1.25"/>
        <path class="cls-1" d="M177.74,35.79h-10.81v6.31h11.59c.86,0,1.3.42,1.3,1.25v3.67c0,.86-.43,1.3-1.3,1.3h-17.64c-.84,0-1.25-.42-1.25-1.25v-28.01c0-.84.42-1.25,1.25-1.25h17.47c.84,0,1.25.42,1.25,1.25v3.72c0,.86-.42,1.3-1.25,1.3h-11.41v5.75h10.81c.81,0,1.21.42,1.21,1.25v3.46c0,.84-.4,1.25-1.21,1.25"/>
        <path class="cls-1" d="M202.46,35.79h-10.81v6.31h11.59c.86,0,1.3.42,1.3,1.25v3.67c0,.86-.43,1.3-1.3,1.3h-17.64c-.84,0-1.25-.42-1.25-1.25v-28.01c0-.84.42-1.25,1.25-1.25h17.46c.84,0,1.25.42,1.25,1.25v3.72c0,.86-.42,1.3-1.25,1.3h-11.41v5.75h10.81c.81,0,1.21.42,1.21,1.25v3.46c0,.84-.4,1.25-1.21,1.25"/>
        <path class="cls-1" d="M227.19,36.61h-10.76v10.46c0,.84-.42,1.25-1.25,1.25h-4.84c-.84,0-1.25-.42-1.25-1.25v-28.01c0-.84.42-1.25,1.25-1.25h17.34c.84,0,1.25.42,1.25,1.25v3.72c0,.84-.42,1.25-1.25,1.25h-11.24v6.48h10.76c.84,0,1.25.42,1.25,1.25v3.63c0,.81-.42,1.21-1.25,1.21"/>
        <path class="cls-1" d="M248.72,37.09v9.99c0,.84-.42,1.25-1.25,1.25h-4.93c-.84,0-1.25-.42-1.25-1.25v-9.99l-9.86-17.73c-.23-.37-.26-.73-.09-1.06.17-.33.48-.5.91-.5h5.14c.75,0,1.31.39,1.69,1.17l4.12,8.21,1.76,4.07h.09l1.77-4.06,4.11-8.21c.37-.78.94-1.17,1.69-1.17h5.14c.43,0,.73.17.91.5.17.33.14.68-.09,1.06l-9.86,17.73h0Z"/>
      </g>
    </g>
  </g>
</svg>